<svg xmlns="http://www.w3.org/2000/svg" version="1.1" xmlns:xlink="http://www.w3.org/1999/xlink" xmlns:svgjs="http://svgjs.dev/svgjs" width="1500" height="1327" viewBox="0 0 1500 1327"><g transform="matrix(1,0,0,1,-0.046082949308811294,0.5372469635626658)"><svg viewBox="0 0 279 247" data-background-color="#0a1627" preserveAspectRatio="xMidYMid meet" height="1327" width="1500" xmlns="http://www.w3.org/2000/svg" xmlns:xlink="http://www.w3.org/1999/xlink"><g id="tight-bounds" transform="matrix(1,0,0,1,0.008571428571428896,-0.09999999999999432)"><svg viewBox="0 0 278.98285714285714 247.2" height="247.2" width="278.98285714285714"><g><svg viewBox="0 0 278.98285714285714 247.2" height="247.2" width="278.98285714285714"><g><svg viewBox="0 0 278.98285714285714 247.2" height="247.2" width="278.98285714285714"><g id="textblocktransform"><svg viewBox="0 0 278.98285714285714 247.2" height="247.2" width="278.98285714285714" id="textblock"><g><svg viewBox="0 0 278.98285714285714 247.2" height="247.2" width="278.98285714285714"><g transform="matrix(1,0,0,1,0,0)"><svg width="278.98285714285714" viewBox="1.25 -35 39.5 35" height="247.2" data-palette-color="#8000ff"><path d="M21.4-9.25L27.4-35 40.75-35 40.75-34.05 38-34.05 38-0.95 40.75-0.95 40.75 0 25.5 0 25.5-0.95 28.25-0.95 28.25-32.2 28.05-32.2 20.55 0 14.3 0 5.5-32.35 5.3-32.35 5.3-0.95 8.05-0.95 8.05 0 1.25 0 1.25-0.95 4-0.95 4-34.05 1.25-34.05 1.25-35 14.75-35 21.4-9.25Z" opacity="1" transform="matrix(1,0,0,1,0,0)" fill="#8000ff" class="wordmark-text-0" data-fill-palette-color="primary" id="text-0"></path></svg></g></svg></g></svg></g></svg></g></svg></g><defs></defs></svg><rect width="278.98285714285714" height="247.2" fill="none" stroke="none" visibility="hidden"></rect></g></svg></g></svg>